<?xml version="1.0" encoding="utf-8"?>
<!-- Generator: Adobe Illustrator 25.4.1, SVG Export Plug-In . SVG Version: 6.00 Build 0)  -->
<svg version="1.1" id="dino" xmlns="http://www.w3.org/2000/svg" xmlns:xlink="http://www.w3.org/1999/xlink" x="0px" y="0px"
	 viewBox="0 0 300 300" style="enable-background:new 0 0 300 300;" xml:space="preserve">
<style type="text/css">
	.st0{fill:url(#SVGID_1_);}
</style>
<g>
	
		<linearGradient id="SVGID_1_" gradientUnits="userSpaceOnUse" x1="62.218" y1="56.1253" x2="249.875" y2="243.7833" gradientTransform="matrix(1 0 0 -1 0 302)">
		<stop  offset="0" style="stop-color:#E5A00D"/>
		<stop  offset="1" style="stop-color:#FF15DA"/>
	</linearGradient>
	<path class="st0" d="M224,50v-8c0-2.2,1.8-4,4-4s4,1.8,4,4v8c0,2.2-1.8,4-4,4S224,52.2,224,50z M232,66c0-2.2-1.8-4-4-4s-4,1.8-4,4
		v8c0,2.2,1.8,4,4,4s4-1.8,4-4V66z M212,62h8c2.2,0,4-1.8,4-4s-1.8-4-4-4h-8c-2.2,0-4,1.8-4,4S209.8,62,212,62z M244,54h-8
		c-2.2,0-4,1.8-4,4s1.8,4,4,4h8c2.2,0,4-1.8,4-4S246.2,54,244,54z M256,106c-2.2,0-4,1.8-4,4s1.8,4,4,4c2.2,0,4-1.8,4-4
		S258.2,106,256,106z M44,218c-2.2,0-4,1.8-4,4s1.8,4,4,4s4-1.8,4-4S46.2,218,44,218z M228,126c-2.2,0-4,1.8-4,4s1.8,4,4,4
		s4-1.8,4-4S230.2,126,228,126z M240,258c0,2.2-1.8,4-4,4H84c-2.2,0-4-1.8-4-4c0-8.8,5.5-16.4,13.8-20.6c-3.7-4.3-5.8-9.9-5.8-15.7
		v-19.4c0-4.4,1.2-8.6,3.4-12.3H78c-7.7,0-14-6.3-14-14s6.3-14,14-14h22v-8H82c-14,0-27-7-34.8-18.6c-1.2-1.8-0.8-4.2,0.9-5.4
		l18-13.5l-22.8-3.8c-1.9-0.3-3.3-2-3.3-3.9V81.1C40,75,45,70,51.1,70h53.3c0.2-0.2,0.3-0.4,0.5-0.6l36.7-26.7
		c1.8-1.3,4.2-0.9,5.6,0.8L158,58h22c2,0,3.6,1.4,3.9,3.3l3.6,21.8l17.9,7.2c2.1,0.8,3.1,3.1,2.2,5.2l-7.2,17.9l10.7,14.2
		c1.1,1.4,1.1,3.4,0,4.8l-10.5,14l6.9,13.8c0.7,1.5,0.5,3.3-0.6,4.5l-22.8,25.1c0,0-0.1,0-0.1,0.1v8.1v4c0,8.8,7.2,16,16,16
		C222.1,218,240,235.9,240,258L240,258z M231.8,254c-2-15.8-15.5-28-31.8-28c-6.1,0-11.7-2.3-16-6.2V234c0,2.2-1.8,4-4,4s-4-1.8-4-4
		V125.9c0-26.4-21.5-47.9-47.9-47.9h-77c-1.7,0-3.1,1.4-3.1,3.1v24.2l28.7,4.8c1.6,0.3,2.9,1.4,3.2,3c0.4,1.6-0.2,3.2-1.5,4.1
		l-22.3,16.7C62.5,141.6,72,146,82,146h22c2.2,0,4,1.8,4,4v12h20c2.2,0,4,1.8,4,4s-1.8,4-4,4H78c-3.3,0-6,2.7-6,6s2.7,6,6,6h50
		c2.2,0,4,1.8,4,4s-1.8,4-4,4h-26.4c0,0-0.1,0.1-0.1,0.1c-3.5,3.1-5.5,7.5-5.5,12.2v19.4c0,5.1,2.3,9.7,6.3,12.8
		c1.8-0.3,3.7-0.5,5.7-0.5h20c2.2,0,4,1.8,4,4s-1.8,4-4,4h-20c-9.3,0-17.1,5.1-19.4,12H231.8z M86,86c-3.3,0-6,2.7-6,6s2.7,6,6,6
		s6-2.7,6-6S89.3,86,86,86z"/>
</g>
</svg>
